<svg width="38" height="38" viewBox="0 0 38 38" fill="none" xmlns="http://www.w3.org/2000/svg">
<path d="M18.9998 3.16797C10.2694 3.16797 3.1665 10.2709 3.1665 19.0013C3.1665 27.7317 10.2694 34.8346 18.9998 34.8346C27.7303 34.8346 34.8332 27.7317 34.8332 19.0013C34.8332 10.2709 27.7303 3.16797 18.9998 3.16797ZM18.9998 5.54297C26.4467 5.54297 32.4582 11.5544 32.4582 19.0013C32.4582 26.4482 26.4467 32.4596 18.9998 32.4596C11.5529 32.4596 5.5415 26.4482 5.5415 19.0013C5.5415 11.5544 11.5529 5.54297 18.9998 5.54297ZM18.9998 11.0846C18.5799 11.0846 18.1772 11.2515 17.8803 11.5484C17.5833 11.8453 17.4165 12.248 17.4165 12.668C17.4165 13.0879 17.5833 13.4906 17.8803 13.7876C18.1772 14.0845 18.5799 14.2513 18.9998 14.2513C19.4198 14.2513 19.8225 14.0845 20.1194 13.7876C20.4164 13.4906 20.5832 13.0879 20.5832 12.668C20.5832 12.248 20.4164 11.8453 20.1194 11.5484C19.8225 11.2515 19.4198 11.0846 18.9998 11.0846ZM18.9813 16.6093C18.6666 16.6142 18.3667 16.7438 18.1476 16.9697C17.9284 17.1955 17.8078 17.4991 17.8123 17.8138V26.5221C17.8101 26.6795 17.8392 26.8357 17.8979 26.9818C17.9565 27.1278 18.0437 27.2607 18.1541 27.3727C18.2646 27.4848 18.3963 27.5738 18.5415 27.6345C18.6867 27.6953 18.8425 27.7265 18.9998 27.7265C19.1572 27.7265 19.313 27.6953 19.4582 27.6345C19.6034 27.5738 19.735 27.4848 19.8455 27.3727C19.956 27.2607 20.0431 27.1278 20.1018 26.9818C20.1605 26.8357 20.1896 26.6795 20.1873 26.5221V17.8138C20.1896 17.6549 20.16 17.4971 20.1001 17.3498C20.0403 17.2025 19.9515 17.0688 19.8391 16.9565C19.7266 16.8441 19.5927 16.7555 19.4454 16.6959C19.298 16.6363 19.1402 16.6068 18.9813 16.6093Z" fill="#161616"/>
</svg>
